<?xml version="1.0" encoding="UTF-8"?>
<svg xmlns="http://www.w3.org/2000/svg" version="1.1" viewBox="0 0 144 252">
  <!-- Generator: Adobe Illustrator 30.0.0, SVG Export Plug-In . SVG Version: 2.1.1 Build 123)  -->
  <defs>
    <style>
      .st0, .st1, .st2, .st3, .st4, .st5 {
        stroke-miterlimit: 10;
      }

      .st0, .st1, .st3 {
        stroke-width: .86px;
      }

      .st0, .st2, .st3, .st4, .st5 {
        stroke: #fff;
      }

      .st0, .st2, .st5 {
        fill: none;
      }

      .st1 {
        stroke: #231f20;
      }

      .st1, .st4 {
        fill: #c42d2d;
      }

      .st2 {
        stroke-linecap: round;
      }

      .st2, .st4, .st5 {
        stroke-width: 2px;
      }

      .st3 {
        fill: #fff;
      }
    </style>
  </defs>
  <g id="background">
    <rect class="st1" x="14.05" y="44.87" width="115.9" height="162.26" rx="3.06" ry="3.06"/>
  </g>
  <g id="frame">
    <polyline class="st0" points="100.76 62.17 100.76 69.37 67.08 75.63 43.89 93.42 43.53 76.48"/>
    <polyline class="st0" points="43.53 188.57 43.53 181.37 77.21 175.12 100.4 157.33 100.76 174.27"/>
    <line class="st0" x1="66.89" y1="95.33" x2="66.89" y2="69.37"/>
    <line class="st0" x1="77.4" y1="155.41" x2="77.4" y2="181.37"/>
    <polyline class="st0" points="100.76 110.3 100.76 93.39 100.76 69.37 66.89 95.33 43.53 93.39"/>
    <polyline class="st0" points="43.53 140.45 43.53 157.36 43.53 181.37 77.4 155.41 100.76 157.36"/>
  </g>
  <g id="wheels">
    <circle class="st5" cx="43.71" cy="93.78" r="16.91"/>
    <circle class="st4" cx="100.76" cy="93.39" r="16.91"/>
    <circle class="st5" cx="43.53" cy="157.36" r="16.91"/>
    <line class="st0" x1="43.89" y1="93.42" x2="31.66" y2="81.69"/>
    <line class="st0" x1="43.89" y1="93.42" x2="43.53" y2="76.48"/>
    <line class="st0" x1="43.89" y1="93.42" x2="55.62" y2="81.19"/>
    <line class="st0" x1="43.89" y1="93.42" x2="26.95" y2="93.78"/>
    <line class="st0" x1="43.89" y1="93.42" x2="32.17" y2="105.65"/>
    <line class="st0" x1="43.89" y1="93.42" x2="44.25" y2="110.36"/>
    <line class="st0" x1="43.89" y1="93.42" x2="56.12" y2="105.15"/>
    <line class="st0" x1="43.89" y1="93.42" x2="60.83" y2="93.06"/>
    <circle class="st5" cx="100.76" cy="157.36" r="16.91"/>
    <line class="st0" x1="100.4" y1="157.33" x2="112.63" y2="169.05"/>
    <line class="st0" x1="100.4" y1="157.33" x2="100.76" y2="174.27"/>
    <line class="st0" x1="100.4" y1="157.33" x2="88.67" y2="169.56"/>
    <line class="st0" x1="100.4" y1="157.33" x2="117.34" y2="156.97"/>
    <line class="st0" x1="100.4" y1="157.33" x2="112.13" y2="145.1"/>
    <line class="st0" x1="100.4" y1="157.33" x2="100.04" y2="140.39"/>
    <line class="st0" x1="100.4" y1="157.33" x2="88.17" y2="145.6"/>
    <line class="st0" x1="100.4" y1="157.33" x2="83.46" y2="157.68"/>
    <polyline class="st0" points="83.85 93.39 100.76 93.39 117.67 93.39"/>
    <polyline class="st0" points="88.8 81.43 100.76 93.39 112.71 105.35"/>
    <polyline class="st0" points="100.76 76.48 100.76 93.39 100.76 110.3"/>
    <polyline class="st0" points="112.71 81.43 100.76 93.39 88.8 105.35"/>
    <polyline class="st0" points="60.45 157.36 43.53 157.36 26.62 157.36"/>
    <polyline class="st0" points="55.49 169.31 43.53 157.36 31.58 145.4"/>
    <polyline class="st0" points="100.76 76.48 100.76 93.39 100.76 110.3"/>
    <polyline class="st0" points="31.58 169.31 43.53 157.36 55.49 145.4"/>
  </g>
  <g id="seat">
    <path class="st3" d="M60.45,69.37c3.27-.14,6.62-.33,10.04-.57,2.38-.17,4.71-.36,7.01-.57.66-.21.98-.4.97-.55-.03-.31-1.39-.5-4.1-.58h-14.87c-.71.24-1.24.7-1.23,1.14,0,.55.87,1.24,2.18,1.14Z"/>
    <path class="st3" d="M83.85,181.37c-3.27.14-6.62.33-10.04.57-2.38.17-4.71.36-7.01.57-.66.21-.98.4-.97.55.03.31,1.39.5,4.1.58h14.87c.71-.24,1.24-.7,1.23-1.14,0-.55-.87-1.24-2.18-1.14Z"/>
  </g>
  <g id="handles">
    <line class="st2" x1="91.42" y1="62.65" x2="110.18" y2="62.65"/>
    <line class="st2" x1="52.87" y1="188.1" x2="34.11" y2="188.1"/>
  </g>
</svg>