<?xml version="1.0" encoding="UTF-8"?>
<svg xmlns="http://www.w3.org/2000/svg" viewBox="0 0 144 252">
  <defs>
    <style>
      .cls-1 {
        stroke-width: .79px;
      }

      .cls-1, .cls-2, .cls-3, .cls-4, .cls-5, .cls-6, .cls-7, .cls-8, .cls-9, .cls-10, .cls-11, .cls-12, .cls-13, .cls-14, .cls-15, .cls-16, .cls-17, .cls-18, .cls-19, .cls-20, .cls-21, .cls-22, .cls-23 {
        stroke-miterlimit: 10;
      }

      .cls-1, .cls-2, .cls-3, .cls-4, .cls-5, .cls-6, .cls-7, .cls-8, .cls-9, .cls-11, .cls-12, .cls-13, .cls-14, .cls-15, .cls-16, .cls-17, .cls-18, .cls-19, .cls-20, .cls-21, .cls-22, .cls-23 {
        fill: none;
      }

      .cls-1, .cls-2, .cls-3, .cls-4, .cls-6, .cls-7, .cls-8, .cls-9, .cls-11, .cls-12, .cls-13, .cls-14, .cls-15, .cls-16, .cls-17, .cls-18, .cls-19, .cls-20, .cls-21, .cls-22, .cls-23 {
        stroke: #fff;
      }

      .cls-2 {
        stroke-width: 1.25px;
      }

      .cls-3 {
        stroke-width: 1.13px;
      }

      .cls-4 {
        stroke-width: 1.2px;
      }

      .cls-5 {
        stroke-width: 3px;
      }

      .cls-5, .cls-10 {
        stroke: #231f20;
      }

      .cls-6 {
        stroke-width: 1.26px;
      }

      .cls-8 {
        stroke-width: 1.26px;
      }

      .cls-9 {
        stroke-width: 1.19px;
      }

      .cls-10 {
        fill: #c42d2d;
        stroke-width: .86px;
      }

      .cls-11 {
        stroke-width: 1.25px;
      }

      .cls-12 {
        stroke-width: 1.26px;
      }

      .cls-13 {
        stroke-width: 1.26px;
      }

      .cls-14 {
        stroke-width: .82px;
      }

      .cls-15 {
        stroke-width: 1.24px;
      }

      .cls-16 {
        stroke-width: 1.26px;
      }

      .cls-17 {
        stroke-width: 1.26px;
      }

      .cls-18 {
        stroke-width: 1.26px;
      }

      .cls-19 {
        stroke-width: 1.26px;
      }

      .cls-20 {
        stroke-width: 1.26px;
      }

      .cls-21 {
        stroke-width: 1.23px;
      }

      .cls-22 {
        stroke-width: 1.27px;
      }

      .cls-23 {
        stroke-width: 1.26px;
      }
    </style>
  </defs>
  <g id="background">
    <rect class="cls-10" x="14.05" y="44.87" width="115.9" height="162.26" rx="3.06" ry="3.06"/>
  </g>
  <g id="lines">
    <polyline class="cls-20" points="14.73 45.26 15.03 45.68 21.07 54.21 27.42 63.16 33.76 72.11 40.1 81.07 46.45 90.01 52.79 98.96 59.13 107.92 65.48 116.86 71.83 125.82 78.16 134.76 84.52 143.71 90.86 152.67 97.2 161.61 103.55 170.56 109.89 179.52 116.22 188.46 122.58 197.42 128.62 205.95 128.92 206.37"/>
    <polyline class="cls-22" points="116.9 207.13 116.8 207 110.44 198.02 104.08 189.05 97.72 180.07 91.37 171.1 85 162.13 78.64 153.15 72.28 144.18 65.92 135.2 59.56 126.23 53.2 117.25 46.84 108.28 40.48 99.31 34.12 90.33 27.76 81.36 21.4 72.38 15.04 63.41 14.05 62.02"/>
    <polyline class="cls-22" points="14.05 79.74 15.34 81.57 21.71 90.54 28.06 99.52 34.42 108.49 40.78 117.46 47.14 126.44 53.5 135.41 59.87 144.39 66.22 153.36 72.59 162.34 78.95 171.31 85.31 180.29 91.67 189.26 98.02 198.23 104.33 207.13 104.38 207.2"/>
    <polyline class="cls-16" points="14.05 97.47 15.64 99.72 21.97 108.64 28.29 117.56 34.61 126.48 40.94 135.4 47.26 144.32 53.59 153.25 59.91 162.17 66.23 171.1 72.56 180.02 78.88 188.95 85.21 197.87 91.33 206.51 91.53 206.79"/>
    <polyline class="cls-8" points="14.05 115.2 15.94 117.87 22.27 126.8 28.59 135.72 34.92 144.64 41.24 153.57 47.57 162.5 53.9 171.43 60.22 180.35 66.55 189.28 72.88 198.2 78.85 206.64 79.2 207.13"/>
    <polyline class="cls-11" points="14.05 132.92 16.24 136.01 22.52 144.88 28.82 153.75 35.11 162.63 41.4 171.5 47.69 180.38 53.98 189.25 60.27 198.13 66.06 206.31 66.56 207.01"/>
    <polyline class="cls-2" points="14.05 150.65 16.52 154.13 22.78 162.97 29.04 171.8 35.3 180.64 41.56 189.46 47.82 198.3 53.45 206.23 54.08 207.13"/>
    <polyline class="cls-21" points="14.05 168.38 16.79 172.25 22.98 180.98 29.17 189.72 35.36 198.46 40.79 206.11 41.57 207.2"/>
    <polyline class="cls-9" points="14.05 186.11 16.97 190.22 22.93 198.63 28.01 205.8 28.89 207.04"/>
    <polyline class="cls-1" points="16.19 206.85 15.46 205.82 14.05 203.83"/>
    <polyline class="cls-22" points="129.95 190.09 128.91 188.63 122.55 179.66 116.19 170.68 109.83 161.71 103.48 152.74 97.11 143.76 90.75 134.79 84.39 125.81 78.03 116.84 71.67 107.86 65.31 98.89 58.95 89.91 52.59 80.94 46.23 71.97 39.87 63 33.51 54.02 27.15 45.05 27.03 44.87"/>
    <polyline class="cls-22" points="129.95 172.37 128.61 170.47 122.25 161.5 115.89 152.53 109.53 143.56 103.17 134.58 96.81 125.61 90.45 116.63 84.09 107.66 77.73 98.68 71.37 89.71 65 80.73 58.65 71.76 52.29 62.79 45.93 53.81 39.59 44.87 39.57 44.84"/>
    <polyline class="cls-22" points="51.98 44.63 52.15 44.87 58.34 53.61 64.7 62.58 71.06 71.55 77.42 80.53 83.78 89.5 90.14 98.48 96.5 107.45 102.87 116.43 109.23 125.4 115.59 134.38 121.94 143.34 128.3 152.32 129.95 154.64"/>
    <polyline class="cls-22" points="64.4 44.43 64.71 44.87 70.76 53.4 77.11 62.37 83.48 71.35 89.84 80.32 96.2 89.3 102.56 98.27 108.92 107.25 115.28 116.22 121.64 125.2 128 134.16 129.95 136.92"/>
    <polyline class="cls-7" points="76.81 44.21 77.28 44.87 83.17 53.18 89.53 62.16 95.89 71.13 102.26 80.11 108.62 89.08 114.98 98.06 121.34 107.03 127.7 116.01 129.95 119.19"/>
    <polyline class="cls-22" points="89.23 44 89.84 44.87 95.59 52.98 101.95 61.95 108.31 70.93 114.67 79.9 121.03 88.88 127.39 97.85 129.95 101.46"/>
    <polyline class="cls-22" points="101.65 43.8 102.41 44.87 108 52.77 114.37 61.75 120.73 70.72 127.09 79.7 129.95 83.73"/>
    <polyline class="cls-4" points="114.97 44.87 115.83 46.08 120.97 53.34 126.96 61.8 129.95 66.01"/>
    <polyline class="cls-14" points="127.71 45.11 128.43 46.13 129.95 48.27"/>
    <polyline class="cls-15" points="18.49 207.13 19.48 205.63 24.43 198.12 30.37 189.1 36.32 180.09 42.27 171.07 48.21 162.05 54.16 153.04 60.11 144.03 66.05 135.01 72 126 77.94 116.98 83.89 107.97 89.83 98.95 95.78 89.94 101.73 80.92 107.67 71.9 113.62 62.89 119.56 53.88 124.54 46.32 125.51 44.86"/>
    <polyline class="cls-23" points="113.21 44.88 112.37 46.15 107.2 53.98 101.2 63.08 95.19 72.18 89.2 81.3 83.19 90.4 77.19 99.5 71.18 108.6 65.17 117.71 59.17 126.82 53.16 135.92 47.17 145.02 41.16 154.13 35.16 163.23 29.15 172.34 23.14 181.44 17.14 190.54 14.05 195.23"/>
    <polyline class="cls-22" points="101.65 43.8 100.94 44.87 95.59 52.98 89.53 62.16 83.48 71.35 77.42 80.53 71.37 89.71 65.31 98.89 59.25 108.08 53.2 117.25 47.14 126.44 41.09 135.62 35.03 144.8 28.98 153.98 22.92 163.17 16.86 172.35 14.05 176.62"/>
    <polyline class="cls-22" points="89.23 44 88.65 44.87 83.17 53.18 77.11 62.37 71.06 71.55 65 80.73 58.95 89.91 52.89 99.1 46.84 108.28 40.78 117.46 34.73 126.64 28.67 135.83 22.61 145.01 16.56 154.19 14.05 157.99"/>
    <polyline class="cls-22" points="76.81 44.21 76.38 44.87 70.76 53.4 64.7 62.58 58.65 71.76 52.59 80.94 46.53 90.13 40.48 99.31 34.42 108.49 28.37 117.67 22.31 126.86 16.26 136.04 14.05 139.38"/>
    <polyline class="cls-22" points="64.4 44.43 64.1 44.87 58.34 53.61 52.29 62.79 46.23 71.97 40.17 81.16 34.12 90.33 28.06 99.52 22.01 108.7 15.95 117.88 14.05 120.77"/>
    <polyline class="cls-3" points="51.98 44.63 51.85 44.84 46.57 52.84 41.14 61.07 35.72 69.28 30.31 77.5 24.89 85.71 19.47 93.93 18.04 96.1 14.05 102.15"/>
    <polyline class="cls-22" points="39.57 44.84 39.54 44.87 33.51 54.02 27.45 63.21 21.4 72.38 15.34 81.57 14.05 83.53"/>
    <polyline class="cls-22" points="27.27 44.87 27.15 45.05 21.09 54.23 15.04 63.41 14.05 64.91"/>
    <polyline class="cls-18" points="129.95 56.73 126.81 61.5 120.81 70.6 114.8 79.7 108.81 88.8 102.8 97.91 96.79 107.01 90.79 116.11 84.79 125.21 78.78 134.32 72.78 143.42 66.77 152.52 60.78 161.62 54.77 170.73 48.77 179.83 42.77 188.93 36.76 198.03 31.62 205.82 30.76 207.13"/>
    <polyline class="cls-12" points="129.95 75.36 127.12 79.66 121.11 88.75 115.12 97.85 109.12 106.95 103.12 116.05 97.12 125.14 91.12 134.23 85.12 143.33 79.12 152.42 73.13 161.53 67.12 170.62 61.12 179.71 55.13 188.81 49.12 197.91 43.86 205.9 43.13 207.01"/>
    <polyline class="cls-19" points="129.95 93.97 127.41 97.82 121.41 106.93 115.4 116.04 109.4 125.15 103.38 134.26 97.37 143.36 91.37 152.48 85.36 161.59 79.36 170.69 73.35 179.8 67.33 188.92 61.33 198.02 55.92 206.23 55.32 207.13"/>
    <polyline class="cls-6" points="129.95 112.6 127.72 115.98 121.71 125.09 115.71 134.19 109.71 143.29 103.71 152.39 97.7 161.49 91.7 170.59 85.7 179.7 79.69 188.8 73.69 197.9 68.15 206.31 67.68 207.01"/>
    <polyline class="cls-13" points="129.95 131.21 128.02 134.14 122 143.24 116 152.36 109.99 161.46 103.99 170.57 97.98 179.68 91.98 188.79 85.97 197.9 80.28 206.52 79.96 207.01"/>
    <polyline class="cls-17" points="129.95 149.82 128.31 152.31 122.29 161.44 116.26 170.58 110.24 179.72 104.21 188.86 98.18 197.99 92.34 206.85 92.16 207.13"/>
    <polyline class="cls-22" points="129.95 168.44 128.61 170.47 122.55 179.66 116.49 188.84 110.44 198.02 104.43 207.13 104.38 207.2"/>
    <polyline class="cls-22" points="116.72 207.13 116.8 207 122.86 197.82 128.91 188.63 129.95 187.06"/>
  </g>
  <g id="border">
    <path class="cls-5" d="M129.95,47.92v156.16c0,.91-.4,1.72-1.03,2.29-.54.47-1.25.76-2.02.76H17.1c-.27,0-.54-.04-.79-.11-1.3-.34-2.26-1.53-2.26-2.94V47.92c0-.88.38-1.68.98-2.24.55-.5,1.27-.81,2.07-.81h109.8c.24,0,.48.03.7.08,1.35.32,2.35,1.53,2.35,2.97Z"/>
  </g>
</svg>